<svg xmlns="http://www.w3.org/2000/svg" width="178" height="100" viewBox="0 0 178 100" fill="none"><path d="M55.32 42.25H58.32V56.7H55.32V42.25Z" fill="white"></path><path d="M60 51.75C60 50.7104 60.3087 49.6942 60.8869 48.8302C61.4651 47.9662 62.2868 47.2933 63.2479 46.8968C64.209 46.5004 65.2661 46.3982 66.2853 46.6032C67.3045 46.8082 68.2399 47.3112 68.9729 48.0484C69.7059 48.7857 70.2036 49.7239 70.4028 50.7443C70.6019 51.7647 70.4937 52.8212 70.0917 53.78C69.6897 54.7387 69.0122 55.5566 68.1449 56.1298C67.2776 56.7031 66.2596 57.0059 65.22 57C64.5305 57.0054 63.8468 56.8731 63.2091 56.6108C62.5714 56.3484 61.9924 55.9615 61.5062 55.4725C61.02 54.9835 60.6364 54.4023 60.3777 53.7631C60.1191 53.1239 59.9907 52.4395 60 51.75V51.75ZM67.52 51.75C67.5082 51.3018 67.3645 50.867 67.1069 50.5001C66.8493 50.1331 66.4893 49.8502 66.0717 49.6868C65.6542 49.5234 65.1978 49.4867 64.7596 49.5814C64.3213 49.676 63.9207 49.8978 63.6078 50.2189C63.2949 50.54 63.0836 50.9462 63.0004 51.3868C62.9172 51.8274 62.9657 52.2827 63.1399 52.6958C63.3141 53.109 63.6062 53.4616 63.9798 53.7095C64.3533 53.9575 64.7916 54.0899 65.24 54.09C65.5453 54.096 65.8485 54.0389 66.1307 53.9223C66.4129 53.8058 66.668 53.6323 66.8801 53.4127C67.0922 53.1931 67.2567 52.9321 67.3634 52.646C67.4701 52.3599 67.5166 52.0549 67.5 51.75H67.52Z" fill="white"></path><path d="M82.31 46.8V56.21C82.31 59.53 79.71 60.94 77.08 60.94C76.1523 61.0161 75.2218 60.8318 74.3933 60.4078C73.5647 59.9838 72.8709 59.3369 72.39 58.54L74.92 57.08C75.125 57.4933 75.4511 57.8344 75.8549 58.0577C76.2587 58.281 76.7209 58.376 77.18 58.33C77.4725 58.366 77.7693 58.337 78.0492 58.2449C78.3292 58.1529 78.5853 58.0001 78.7993 57.7976C79.0134 57.595 79.18 57.3477 79.2873 57.0732C79.3946 56.7988 79.4399 56.504 79.42 56.21V55.3C79.0709 55.7233 78.6279 56.0593 78.1263 56.2815C77.6246 56.5037 77.0781 56.6059 76.53 56.58C75.2039 56.58 73.9322 56.0532 72.9945 55.1155C72.0568 54.1778 71.53 52.9061 71.53 51.58C71.53 50.2539 72.0568 48.9821 72.9945 48.0445C73.9322 47.1068 75.2039 46.58 76.53 46.58C77.0781 46.5541 77.6246 46.6563 78.1263 46.8785C78.6279 47.1006 79.0709 47.4367 79.42 47.86V46.86L82.31 46.8ZM79.42 51.55C79.4399 51.0716 79.3163 50.5981 79.065 50.1905C78.8137 49.7829 78.4463 49.4598 78.0098 49.2627C77.5734 49.0656 77.0881 49.0036 76.6161 49.0846C76.1442 49.1656 75.7072 49.3859 75.3615 49.7172C75.0158 50.0485 74.7771 50.4757 74.6761 50.9438C74.5751 51.4118 74.6164 51.8994 74.7947 52.3438C74.9731 52.7882 75.2803 53.1691 75.6768 53.4375C76.0734 53.7059 76.5412 53.8496 77.02 53.85C77.3325 53.8725 77.6462 53.8292 77.9408 53.723C78.2355 53.6167 78.5047 53.4498 78.7308 53.233C78.957 53.0163 79.1352 52.7545 79.2539 52.4646C79.3726 52.1747 79.4292 51.8631 79.42 51.55V51.55Z" fill="white"></path><path d="M84 51.75C84 50.7112 84.3082 49.6958 84.8855 48.8322C85.4628 47.9686 86.2833 47.2957 87.2432 46.8987C88.2031 46.5016 89.2592 46.3982 90.2779 46.6016C91.2966 46.805 92.232 47.306 92.9658 48.0412C93.6997 48.7765 94.1989 49.7129 94.4003 50.7319C94.6018 51.751 94.4964 52.8069 94.0975 53.766C93.6986 54.7252 93.0241 55.5444 92.1595 56.1201C91.2948 56.6957 90.2788 57.002 89.24 57C88.5492 57.0067 87.8639 56.8754 87.2245 56.6138C86.5851 56.3522 86.0043 55.9656 85.5163 55.4766C85.0282 54.9876 84.6427 54.4061 84.3823 53.7662C84.122 53.1263 83.992 52.4408 84 51.75ZM91.52 51.75C91.5082 51.3014 91.3642 50.8662 91.1062 50.499C90.8482 50.1319 90.4875 49.849 90.0694 49.6859C89.6513 49.5228 89.1944 49.4867 88.7559 49.5822C88.3174 49.6776 87.9168 49.9004 87.6043 50.2225C87.2918 50.5446 87.0813 50.9518 86.9993 51.393C86.9172 51.8342 86.9671 52.2898 87.1428 52.7027C87.3185 53.1157 87.6122 53.4676 87.9871 53.7144C88.3619 53.9611 88.8012 54.0918 89.25 54.09C89.5553 54.0959 89.8585 54.0389 90.1407 53.9223C90.4229 53.8058 90.678 53.6323 90.8901 53.4127C91.1022 53.193 91.2667 52.932 91.3734 52.646C91.4801 52.3599 91.5266 52.0549 91.51 51.75H91.52Z" fill="white"></path><path d="M95.87 44.15C95.87 43.7979 95.9744 43.4538 96.17 43.1611C96.3656 42.8684 96.6436 42.6402 96.9688 42.5055C97.2941 42.3708 97.652 42.3355 97.9973 42.4042C98.3425 42.4729 98.6597 42.6424 98.9086 42.8913C99.1576 43.1403 99.3271 43.4574 99.3958 43.8027C99.4645 44.148 99.4292 44.5059 99.2945 44.8312C99.1598 45.1564 98.9316 45.4344 98.6389 45.63C98.3462 45.8256 98.002 45.93 97.65 45.93C97.1795 45.9248 96.7298 45.7356 96.3971 45.4029C96.0644 45.0702 95.8752 44.6205 95.87 44.15V44.15ZM96.16 46.8H99.16V56.7H96.16V46.8Z" fill="white"></path><path d="M112 51.75C112.034 52.4084 111.937 53.067 111.715 53.6878C111.493 54.3086 111.15 54.8794 110.707 55.3673C110.264 55.8553 109.728 56.2507 109.132 56.5309C108.535 56.8111 107.889 56.9705 107.23 57C106.671 57.0372 106.111 56.9477 105.592 56.7382C105.072 56.5286 104.607 56.2045 104.23 55.79V60.68H101.23V46.8H104.23V47.73C104.607 47.3167 105.073 46.9941 105.593 46.7863C106.112 46.5784 106.672 46.4908 107.23 46.53C107.886 46.5595 108.53 46.718 109.124 46.9963C109.719 47.2746 110.253 47.6674 110.696 48.1521C111.139 48.6368 111.482 49.204 111.706 49.8214C111.93 50.4387 112.03 51.094 112 51.75V51.75ZM109 51.75C108.988 51.2856 108.84 50.8349 108.573 50.4546C108.306 50.0743 107.933 49.7811 107.5 49.612C107.067 49.4428 106.594 49.4052 106.14 49.5037C105.686 49.6022 105.271 49.8326 104.948 50.1659C104.624 50.4992 104.406 50.9207 104.321 51.3774C104.236 51.8341 104.287 52.3058 104.469 52.7334C104.651 53.1609 104.955 53.5253 105.343 53.7809C105.731 54.0365 106.185 54.1718 106.65 54.17C106.968 54.1835 107.286 54.1296 107.582 54.0118C107.878 53.894 108.145 53.715 108.367 53.4865C108.589 53.258 108.76 52.9851 108.869 52.6859C108.978 52.3866 109.023 52.0677 109 51.75V51.75Z" fill="white"></path><path d="M121.13 53.73C121.13 56.01 119.13 56.98 117.01 56.98C116.145 57.0578 115.277 56.8746 114.518 56.4538C113.758 56.0331 113.143 55.3943 112.75 54.62L115.33 53.16C115.432 53.5168 115.654 53.8277 115.958 54.0407C116.262 54.2537 116.63 54.3558 117 54.33C117.71 54.33 118.07 54.11 118.07 53.71C118.07 52.62 113.2 53.2 113.2 49.77C113.2 47.61 115.02 46.53 117.08 46.53C117.863 46.4949 118.641 46.6726 119.331 47.0441C120.021 47.4156 120.598 47.9671 121 48.64L118.42 50C118.306 49.742 118.12 49.5226 117.884 49.3682C117.648 49.2138 117.372 49.1311 117.09 49.13C116.57 49.13 116.26 49.33 116.26 49.68C116.26 50.82 121.13 50.07 121.13 53.73Z" fill="white"></path><path d="M132 46.8V56.7H129V55.77C128.659 56.1816 128.226 56.5074 127.737 56.7211C127.247 56.9347 126.714 57.0303 126.18 57C124.18 57 122.47 55.57 122.47 52.9V46.8H125.47V52.45C125.446 52.6862 125.474 52.9247 125.552 53.1491C125.63 53.3734 125.755 53.5782 125.919 53.7494C126.084 53.9205 126.284 54.0539 126.505 54.1403C126.726 54.2268 126.963 54.2642 127.2 54.25C128.28 54.25 129.04 53.61 129.04 52.25V46.8H132Z" fill="white"></path><path d="M149 50.62V56.7H146V50.88C146 49.88 145.53 49.26 144.58 49.26C143.63 49.26 143.03 49.95 143.03 51.12V56.7H140.03V50.88C140.03 49.88 139.56 49.26 138.61 49.26C137.66 49.26 137.06 49.95 137.06 51.12V56.7H134.06V46.8H137.06V47.71C137.371 47.308 137.776 46.9896 138.241 46.7836C138.705 46.5776 139.214 46.4904 139.72 46.53C140.227 46.5036 140.733 46.6095 141.187 46.8374C141.641 47.0653 142.028 47.4074 142.31 47.83C142.64 47.3885 143.076 47.0376 143.578 46.8103C144.079 46.5829 144.631 46.4865 145.18 46.53C147.52 46.53 149 48.15 149 50.62Z" fill="white"></path><path d="M37.45 39.65V35.4H24.05V64.6H37.45V60.35C34.705 60.35 32.0725 59.2595 30.1314 57.3185C28.1904 55.3775 27.1 52.745 27.1 50C27.1 47.255 28.1904 44.6224 30.1314 42.6814C32.0725 40.7404 34.705 39.65 37.45 39.65V39.65Z" fill="white"></path><path d="M37.45 39.65V60.35C40.195 60.35 42.8275 59.2595 44.7686 57.3185C46.7096 55.3775 47.8 52.745 47.8 50C47.8 47.255 46.7096 44.6224 44.7686 42.6814C42.8275 40.7404 40.195 39.65 37.45 39.65V39.65Z" fill="white"></path><path d="M151.52 46.74C152.735 46.74 153.72 45.755 153.72 44.54C153.72 43.325 152.735 42.34 151.52 42.34C150.305 42.34 149.32 43.325 149.32 44.54C149.32 45.755 150.305 46.74 151.52 46.74Z" fill="white"></path></svg>