<svg xmlns="http://www.w3.org/2000/svg" width="178" height="100" viewBox="0 0 178 100" fill="none"><path d="M46.23 41.39H48.23V55.31H54.23V57.31H46.23V41.39ZM60.46 41.39C61.6467 41.39 62.8067 41.7419 63.7934 42.4012C64.7801 43.0605 65.5492 43.9975 66.0033 45.0939C66.4574 46.1903 66.5762 47.3967 66.3447 48.5605C66.1132 49.7244 65.5418 50.7935 64.7026 51.6326C63.8635 52.4718 62.7944 53.0432 61.6305 53.2747C60.4667 53.5062 59.2603 53.3874 58.1639 52.9333C57.0675 52.4791 56.1305 51.7101 55.4712 50.7234C54.8119 49.7367 54.46 48.5767 54.46 47.39C54.46 46.6021 54.6152 45.8218 54.9167 45.0939C55.2182 44.3659 55.6602 43.7045 56.2174 43.1474C56.7745 42.5902 57.4359 42.1482 58.1639 41.8467C58.8918 41.5452 59.6721 41.39 60.46 41.39V41.39ZM60.46 51.39C61.2511 51.39 62.0245 51.1554 62.6823 50.7159C63.3401 50.2763 63.8528 49.6516 64.1555 48.9207C64.4583 48.1898 64.5375 47.3856 64.3831 46.6096C64.2288 45.8337 63.8478 45.121 63.2884 44.5616C62.729 44.0022 62.0163 43.6212 61.2404 43.4669C60.4644 43.3125 59.6602 43.3917 58.9293 43.6945C58.1984 43.9972 57.5736 44.5099 57.1341 45.1677C56.6946 45.8255 56.46 46.5989 56.46 47.39C56.4653 48.4474 56.889 49.4597 57.6386 50.2055C58.3882 50.9513 59.4026 51.37 60.46 51.37V51.39ZM56.46 55.33H64.46V57.33H56.46V55.33ZM82.06 57.33H80.06V55.9C78.7702 56.8028 77.2344 57.288 75.66 57.29C74.3175 57.299 72.9943 56.97 71.8124 56.3333C70.6304 55.6965 69.6277 54.7726 68.8967 53.6466C68.1656 52.5206 67.7296 51.2287 67.629 49.8899C67.5283 48.5512 67.7662 47.2086 68.3207 45.986C68.8752 44.7633 69.7285 43.6998 70.8019 42.8936C71.8754 42.0873 73.1345 41.5641 74.4632 41.3723C75.792 41.1804 77.1477 41.3261 78.4053 41.7958C79.663 42.2655 80.7823 43.0441 81.66 44.06L80.19 45.37C79.5224 44.6236 78.6787 44.0562 77.7356 43.7195C76.7926 43.3827 75.7803 43.2873 74.791 43.442C73.8016 43.5967 72.8668 43.9966 72.0715 44.6051C71.2763 45.2137 70.646 46.0115 70.2382 46.9261C69.8303 47.8406 69.6578 48.8426 69.7364 49.8409C69.815 50.8392 70.1421 51.8019 70.6881 52.6413C71.2341 53.4807 71.9814 54.1702 72.8621 54.6468C73.7427 55.1234 74.7287 55.372 75.73 55.37C76.561 55.3717 77.3826 55.1939 78.1386 54.8487C78.8945 54.5035 79.567 53.9991 80.11 53.37H74.71V51.37H82.08L82.06 57.33ZM89.42 41.43C90.6067 41.43 91.7667 41.7819 92.7534 42.4412C93.7401 43.1005 94.5092 44.0375 94.9633 45.1339C95.4174 46.2303 95.5362 47.4367 95.3047 48.6005C95.0732 49.7644 94.5018 50.8335 93.6626 51.6726C92.8235 52.5118 91.7544 53.0832 90.5905 53.3147C89.4267 53.5462 88.2203 53.4274 87.1239 52.9733C86.0275 52.5191 85.0905 51.7501 84.4312 50.7634C83.7719 49.7767 83.42 48.6167 83.42 47.43C83.4147 46.637 83.5667 45.8509 83.8671 45.117C84.1675 44.3831 84.6104 43.716 85.1702 43.1544C85.73 42.5927 86.3956 42.1476 87.1285 41.8447C87.8614 41.5419 88.647 41.3873 89.44 41.39L89.42 41.43ZM89.42 51.43C90.2111 51.43 90.9845 51.1954 91.6423 50.7559C92.3001 50.3163 92.8128 49.6916 93.1155 48.9607C93.4183 48.2298 93.4975 47.4256 93.3431 46.6496C93.1888 45.8737 92.8078 45.161 92.2484 44.6016C91.689 44.0422 90.9763 43.6612 90.2004 43.5069C89.4244 43.3525 88.6202 43.4317 87.8893 43.7345C87.1584 44.0372 86.5336 44.5499 86.0941 45.2077C85.6546 45.8655 85.42 46.6389 85.42 47.43C85.4358 48.4839 85.8669 49.489 86.6197 50.2268C87.3724 50.9645 88.386 51.3754 89.44 51.37L89.42 51.43ZM85.42 55.37H93.42V57.37H85.42V55.37ZM97.55 41.39H99.55V57.29H97.55V41.39ZM102.32 41.39H104.32C104.423 41.3791 104.527 41.3791 104.63 41.39C105.468 41.2991 106.315 41.3857 107.117 41.644C107.919 41.9024 108.657 42.3267 109.284 42.8894C109.912 43.4521 110.413 44.1406 110.756 44.91C111.1 45.6794 111.277 46.5125 111.277 47.355C111.277 48.1975 111.1 49.0306 110.756 49.8C110.413 50.5694 109.912 51.2579 109.284 51.8206C108.657 52.3833 107.919 52.8076 107.117 53.066C106.315 53.3243 105.468 53.4109 104.63 53.32H104.32V57.32H102.32V41.39ZM104.32 43.39V51.3H104.63C105.195 51.3752 105.769 51.3289 106.315 51.164C106.86 50.9992 107.364 50.7197 107.793 50.3443C108.222 49.9689 108.565 49.5062 108.801 48.9872C109.036 48.4682 109.158 47.9049 109.158 47.335C109.158 46.7651 109.036 46.2018 108.801 45.6828C108.565 45.1638 108.222 44.7011 107.793 44.3257C107.364 43.9502 106.86 43.6708 106.315 43.5059C105.769 43.3411 105.195 43.2948 104.63 43.37C104.521 43.3813 104.414 43.4048 104.31 43.44L104.32 43.39ZM118.73 42.54L117.25 43.71C116.995 43.4432 116.668 43.2548 116.31 43.167C115.951 43.0792 115.575 43.0956 115.225 43.2143C114.875 43.3329 114.567 43.5489 114.336 43.8369C114.104 44.1249 113.96 44.4729 113.92 44.84V45C113.92 45.88 114.53 46.47 115.72 46.55C120.3 46.83 122.4 48.98 122.4 51.82V52C122.282 53.124 121.843 54.1904 121.136 55.0724C120.43 55.9544 119.484 56.6147 118.413 56.975C117.342 57.3352 116.189 57.3802 115.093 57.1045C113.997 56.8289 113.003 56.2442 112.23 55.42L113.76 54.24C114.116 54.6217 114.551 54.9213 115.035 55.1182C115.518 55.315 116.039 55.4044 116.56 55.38C117.523 55.4308 118.469 55.1075 119.199 54.4776C119.93 53.8478 120.388 52.9601 120.48 52V51.86C120.48 49.19 117.86 48.7 115.59 48.48C113.49 48.28 111.98 46.97 111.98 45.08V45C112.054 44.016 112.503 43.098 113.234 42.4356C113.966 41.7731 114.924 41.4167 115.91 41.44C116.433 41.4246 116.953 41.5189 117.437 41.717C117.921 41.9151 118.358 42.2125 118.72 42.59L118.73 42.54ZM130.23 55.26C132.72 55.26 134.69 52.57 134.69 49.26V41.26H136.69V49.26C136.69 53.66 133.81 57.21 130.27 57.21C126.73 57.21 123.85 53.66 123.85 49.26V41.26H125.85V49.26C125.77 52.62 127.74 55.31 130.22 55.31L130.23 55.26ZM152.04 57.26H150.04V47.36L145.43 53.36L140.82 47.36V57.29H138.82V41.39L145.42 50.08L152.02 41.39L152.04 57.26Z" fill="white"></path><path d="M36.63 39C36.63 37.5572 36.0569 36.1735 35.0367 35.1533C34.0165 34.1331 32.6328 33.56 31.19 33.56C29.7472 33.56 28.3635 34.1331 27.3433 35.1533C26.3231 36.1735 25.75 37.5572 25.75 39V55.45L30.23 58.66V66.48H32.15V58.66L36.63 55.45V39ZM34.71 48.2L32.15 50.76V48.36L34.71 45.8V48.2ZM27.71 45.8L30.27 48.36V50.76L27.71 48.2V45.8ZM34.71 43.08L31.19 46.6L27.67 43V40.6L31.19 44.12L34.71 40.6V43.08ZM31.19 35.48C31.9641 35.4834 32.7158 35.7405 33.3299 36.2119C33.944 36.6833 34.3866 37.343 34.59 38.09L31.19 41.48L27.79 38.09C27.9859 37.3356 28.4254 36.667 29.0401 36.1878C29.6549 35.7087 30.4106 35.4458 31.19 35.44V35.48ZM27.67 54.48V50.88L30.23 53.44V56.3L27.67 54.48ZM32.15 56.31V53.44L34.71 50.88V54.47L32.15 56.31Z" fill="white"></path></svg>