<svg xmlns="http://www.w3.org/2000/svg" width="178" height="100" viewBox="0 0 178 100" fill="none"><path d="M63.87 44.07H66.87V56.2H63.87V44.07ZM68.06 51.62C68.06 48.62 69.9 46.83 72.74 46.83C75.58 46.83 77.42 48.62 77.42 51.62C77.42 54.62 75.62 56.42 72.74 56.42C69.86 56.42 68.06 54.67 68.06 51.62ZM74.41 51.62C74.41 49.97 73.76 49 72.74 49C71.72 49 71.08 50 71.08 51.62C71.08 53.24 71.71 54.22 72.74 54.22C73.77 54.22 74.41 53.3 74.41 51.63V51.62ZM78.55 56.79H81.43C81.5671 57.0945 81.7988 57.3466 82.0907 57.5088C82.3826 57.6709 82.7191 57.7345 83.05 57.69C84.19 57.69 84.79 57.07 84.79 56.17V54.49H84.73C84.491 55.0049 84.1031 55.4363 83.6165 55.7287C83.1299 56.021 82.5668 56.1608 82 56.13C79.81 56.13 78.36 54.46 78.36 51.59C78.36 48.72 79.74 46.91 82.04 46.91C82.6246 46.8871 83.2022 47.0434 83.6955 47.3579C84.1888 47.6725 84.5742 48.1303 84.8 48.67V48.67V47H87.8V56.1C87.8 58.29 85.87 59.65 83.02 59.65C80.37 59.65 78.72 58.46 78.55 56.8V56.79ZM84.8 51.61C84.8 50.15 84.13 49.23 83.07 49.23C82.01 49.23 81.36 50.14 81.36 51.61C81.36 53.08 82 53.91 83.07 53.91C84.14 53.91 84.8 53.1 84.8 51.62V51.61ZM88.93 51.61C88.93 48.61 90.77 46.82 93.61 46.82C96.45 46.82 98.3 48.61 98.3 51.61C98.3 54.61 96.5 56.41 93.61 56.41C90.72 56.41 88.93 54.67 88.93 51.62V51.61ZM95.28 51.61C95.28 49.96 94.63 48.99 93.61 48.99C92.59 48.99 92 50 92 51.63C92 53.26 92.63 54.23 93.65 54.23C94.67 54.23 95.28 53.3 95.28 51.63V51.61ZM99.44 44.82C99.4321 44.5171 99.5144 44.2187 99.6763 43.9626C99.8383 43.7065 100.073 43.5043 100.35 43.3815C100.627 43.2587 100.934 43.221 101.232 43.2731C101.531 43.3251 101.807 43.4646 102.026 43.6739C102.245 43.8832 102.397 44.1528 102.463 44.4486C102.529 44.7444 102.505 45.053 102.395 45.3354C102.285 45.6177 102.094 45.8611 101.846 46.0346C101.597 46.2081 101.303 46.304 101 46.31C100.799 46.3238 100.598 46.2959 100.408 46.2281C100.219 46.1603 100.045 46.0541 99.8987 45.916C99.7522 45.778 99.6358 45.6111 99.5569 45.4259C99.4779 45.2408 99.4381 45.0413 99.44 44.84V44.82ZM99.44 47.02H102.44V56.2H99.44V47.02ZM113.33 51.61C113.33 54.61 112 56.32 109.72 56.32C109.135 56.3575 108.553 56.2146 108.053 55.9106C107.552 55.6065 107.156 55.156 106.92 54.62H106.86V59.14H103.86V47H106.86V48.64H106.92C107.145 48.0951 107.533 47.6329 108.031 47.3162C108.528 46.9995 109.111 46.8437 109.7 46.87C112 46.91 113.37 48.63 113.37 51.63L113.33 51.61ZM110.33 51.61C110.33 50.15 109.66 49.22 108.61 49.22C107.56 49.22 106.89 50.16 106.88 51.61C106.87 53.06 107.56 53.99 108.61 53.99C109.66 53.99 110.33 53.08 110.33 51.63V51.61ZM118.48 46.81C120.97 46.81 122.48 47.99 122.55 49.88H119.82C119.82 49.23 119.28 48.82 118.45 48.82C117.62 48.82 117.25 49.14 117.25 49.61C117.25 50.08 117.58 50.23 118.25 50.37L120.17 50.76C122 51.15 122.78 51.89 122.78 53.28C122.78 55.18 121.05 56.4 118.5 56.4C115.95 56.4 114.28 55.18 114.15 53.31H117.04C117.13 53.99 117.67 54.39 118.55 54.39C119.43 54.39 119.83 54.1 119.83 53.62C119.83 53.14 119.55 53.04 118.83 52.89L117.1 52.52C115.31 52.15 114.37 51.2 114.37 49.8C114.39 48 116 46.83 118.48 46.83V46.81ZM132.79 56.18H129.9V54.47H129.84C129.681 55.0441 129.331 55.5466 128.847 55.8941C128.363 56.2415 127.775 56.413 127.18 56.38C126.724 56.4059 126.268 56.3337 125.843 56.1682C125.417 56.0027 125.032 55.7479 124.714 55.4208C124.395 55.0938 124.151 54.7021 123.996 54.2724C123.842 53.8427 123.782 53.3849 123.82 52.93V47H126.82V52.24C126.82 53.33 127.38 53.91 128.31 53.91C128.528 53.9104 128.744 53.8643 128.943 53.7746C129.141 53.6849 129.319 53.5537 129.463 53.3899C129.606 53.226 129.714 53.0333 129.777 52.8247C129.84 52.616 129.859 52.3962 129.83 52.18V47H132.83L132.79 56.18ZM134.24 47H137.14V48.77H137.2C137.359 48.2035 137.702 47.7057 138.174 47.3547C138.646 47.0037 139.222 46.8191 139.81 46.83C140.409 46.7821 141.003 46.9612 141.476 47.3318C141.948 47.7024 142.264 48.2372 142.36 48.83H142.42C142.601 48.2309 142.977 47.7093 143.488 47.3472C143.998 46.9851 144.615 46.8031 145.24 46.83C145.648 46.8163 146.054 46.8886 146.432 47.0422C146.811 47.1957 147.152 47.4272 147.435 47.7214C147.718 48.0157 147.936 48.3662 148.075 48.7501C148.213 49.134 148.27 49.5429 148.24 49.95V56.2H145.24V50.75C145.24 49.75 144.79 49.29 143.95 49.29C143.763 49.2884 143.577 49.327 143.406 49.4032C143.235 49.4794 143.082 49.5914 142.958 49.7317C142.834 49.872 142.741 50.0372 142.686 50.2163C142.631 50.3955 142.616 50.5843 142.64 50.77V56.2H139.79V50.71C139.79 49.79 139.34 49.29 138.52 49.29C138.331 49.2901 138.143 49.3303 137.971 49.408C137.798 49.4858 137.643 49.5993 137.518 49.741C137.392 49.8827 137.298 50.0495 137.241 50.2304C137.185 50.4112 137.167 50.6019 137.19 50.79V56.2H134.19L134.24 47Z" fill="white"></path><path d="M55.48 44.62C54.9711 43.4564 54.2976 42.3719 53.48 41.4C52.2715 39.9203 50.7633 38.7134 49.0547 37.8586C47.3461 37.0038 45.4758 36.5206 43.567 36.4407C41.6582 36.3608 39.7541 36.686 37.98 37.395C36.206 38.104 34.6022 39.1807 33.2742 40.5541C31.9462 41.9276 30.9242 43.5668 30.2753 45.3637C29.6265 47.1606 29.3655 49.0746 29.5097 50.9796C29.6538 52.8847 30.1998 54.7376 31.1116 56.4164C32.0234 58.0953 33.2805 59.562 34.8 60.72C35.775 61.4779 36.8524 62.094 38 62.55C39.609 63.2094 41.3311 63.549 43.07 63.55C46.6594 63.5421 50.0992 62.1113 52.6355 59.5713C55.1717 57.0313 56.5974 53.5894 56.6 50C56.6026 48.1485 56.2213 46.3166 55.48 44.62V44.62ZM43.06 39.19C44.6216 39.1898 46.1643 39.5311 47.58 40.19V40.19C47.2348 40.3392 46.8718 40.4434 46.5 40.5C45.2766 40.6771 44.1433 41.2451 43.2692 42.1192C42.3951 42.9933 41.8271 44.1266 41.65 45.35C41.5723 46.0361 41.2602 46.6744 40.7665 47.1572C40.2728 47.64 39.6277 47.9376 38.94 48C37.7166 48.1771 36.5833 48.7451 35.7092 49.6192C34.8351 50.4933 34.2671 51.6266 34.09 52.85C34.03 53.5024 33.7517 54.1155 33.3 54.59V54.59C32.5207 52.9433 32.1706 51.1261 32.2823 49.3077C32.394 47.4893 32.9639 45.7287 33.939 44.1897C34.914 42.6508 36.2626 41.3835 37.8591 40.5058C39.4556 39.6282 41.2482 39.1686 43.07 39.17L43.06 39.19ZM34.79 57C34.91 56.89 35.03 56.79 35.15 56.67C36.0397 55.8075 36.6107 54.6689 36.77 53.44C36.8346 52.7492 37.143 52.104 37.64 51.62C38.1183 51.1222 38.762 50.8163 39.45 50.76C40.6734 50.5829 41.8067 50.0149 42.6808 49.1408C43.5549 48.2667 44.1229 47.1334 44.3 45.91C44.3433 45.1875 44.6533 44.5068 45.17 44C45.6601 43.5119 46.3099 43.2171 47 43.17C48.1239 43.0154 49.1721 42.5157 50 41.74C50.9427 42.5221 51.7413 43.4629 52.36 44.52C52.322 44.5714 52.2784 44.6183 52.23 44.66C51.7527 45.1622 51.1098 45.4748 50.42 45.54C49.1953 45.714 48.0603 46.281 47.1856 47.1556C46.311 48.0303 45.744 49.1653 45.57 50.39C45.4995 51.0784 45.1932 51.7213 44.703 52.2097C44.2127 52.6982 43.5687 53.0021 42.88 53.07C41.653 53.2457 40.5155 53.8126 39.6363 54.6863C38.7572 55.5601 38.1833 56.6941 38 57.92C37.9462 58.4087 37.7783 58.878 37.51 59.29C36.484 58.6808 35.5651 57.9072 34.79 57V57ZM43.06 60.86C42.0453 60.8611 41.0354 60.7197 40.06 60.44C40.3937 59.818 40.6106 59.1402 40.7 58.44C40.7701 57.7531 41.075 57.1114 41.5632 56.6232C42.0514 56.135 42.6931 55.8301 43.38 55.76C44.6052 55.5849 45.7408 55.0178 46.6169 54.1435C47.4929 53.2693 48.0624 52.1349 48.24 50.91C48.3101 50.2231 48.615 49.5814 49.1032 49.0932C49.5914 48.605 50.2331 48.3001 50.92 48.23C51.842 48.1101 52.7208 47.7668 53.48 47.23C53.9016 48.8279 53.9515 50.5011 53.626 52.1213C53.3005 53.7416 52.6081 55.2657 51.6021 56.5768C50.5961 57.8879 49.3032 58.9511 47.8224 59.6849C46.3417 60.4187 44.7126 60.8036 43.06 60.81V60.86Z" fill="white"></path></svg>