<svg xmlns="http://www.w3.org/2000/svg" width="178" height="100" viewBox="0 0 178 100" fill="none"><path d="M67.88 57.39C67.2852 57.4222 66.6969 57.2531 66.21 56.91C66.0065 56.7592 65.8429 56.5611 65.7331 56.3329C65.6233 56.1046 65.5708 55.8531 65.58 55.6V46.33C65.5751 46.2908 65.5793 46.2509 65.5922 46.2135C65.605 46.1761 65.6262 46.1421 65.6542 46.1142C65.6822 46.0862 65.7161 46.065 65.7535 46.0521C65.7909 46.0393 65.8308 46.0351 65.87 46.04H67.55C67.74 46.04 67.83 46.14 67.83 46.33V54.88C67.83 55.26 68 55.45 68.35 55.45C68.4984 55.4561 68.6468 55.4393 68.79 55.4C68.99 55.4 69.1 55.46 69.11 55.64L69.26 56.89C69.2672 56.9264 69.2665 56.964 69.258 57.0002C69.2495 57.0363 69.2333 57.0702 69.2105 57.0996C69.1878 57.129 69.159 57.1531 69.1261 57.1705C69.0933 57.1878 69.0571 57.1979 69.02 57.2C68.652 57.3216 68.2675 57.3856 67.88 57.39V57.39Z" fill="white"></path><path d="M77.33 56.32C76.4858 57.0175 75.425 57.399 74.33 57.399C73.235 57.399 72.1742 57.0175 71.33 56.32C70.588 55.571 70.1718 54.5593 70.1718 53.505C70.1718 52.4507 70.588 51.439 71.33 50.69C72.1758 49.9961 73.236 49.6169 74.33 49.6169C75.424 49.6169 76.4842 49.9961 77.33 50.69C78.0548 51.4459 78.4595 52.4527 78.4595 53.5C78.4595 54.5473 78.0548 55.5541 77.33 56.31V56.32ZM72.91 55C73.3017 55.3549 73.8114 55.5514 74.34 55.5514C74.8686 55.5514 75.3782 55.3549 75.77 55C76.1245 54.5923 76.3198 54.0703 76.3198 53.53C76.3198 52.9897 76.1245 52.4677 75.77 52.06C75.3782 51.7051 74.8686 51.5086 74.34 51.5086C73.8114 51.5086 73.3017 51.7051 72.91 52.06C72.5554 52.4677 72.3602 52.9897 72.3602 53.53C72.3602 54.0703 72.5554 54.5923 72.91 55Z" fill="white"></path><path d="M87.71 49.87C87.9 49.87 87.99 49.97 87.99 50.16V57.33C88.0075 57.8139 87.9169 58.2957 87.7249 58.7402C87.5329 59.1848 87.2443 59.581 86.88 59.9C86.0714 60.5894 85.0316 60.9468 83.97 60.9C83.0111 60.9337 82.0651 60.6719 81.26 60.15C80.9162 59.9242 80.6225 59.6302 80.3971 59.2861C80.1718 58.9421 80.0196 58.5554 79.95 58.15C79.95 57.95 79.95 57.86 80.22 57.86H81.9C81.9713 57.8624 82.0404 57.8854 82.099 57.9262C82.1575 57.967 82.203 58.0239 82.23 58.09C82.3389 58.3937 82.5561 58.6465 82.84 58.8C83.1859 58.9785 83.5708 59.0678 83.96 59.06C84.1948 59.0729 84.4298 59.0388 84.6513 58.9598C84.8728 58.8808 85.0763 58.7585 85.25 58.6C85.4086 58.4342 85.5321 58.2379 85.6129 58.0231C85.6936 57.8083 85.7301 57.5793 85.72 57.35V56.72C85.1185 57.1624 84.3864 57.3912 83.64 57.37C83.1176 57.389 82.5967 57.3022 82.1087 57.1149C81.6207 56.9276 81.1755 56.6436 80.8 56.28C80.079 55.5341 79.676 54.5374 79.676 53.5C79.676 52.4626 80.079 51.4659 80.8 50.72C81.1773 50.3596 81.623 50.0783 82.1108 49.8929C82.5985 49.7074 83.1185 49.6214 83.64 49.64C84.408 49.6197 85.1597 49.8632 85.77 50.33V50.17C85.7654 50.1317 85.7694 50.0928 85.7817 50.0562C85.794 50.0196 85.8143 49.9863 85.8411 49.9585C85.8679 49.9307 85.9006 49.9093 85.9367 49.8957C85.9728 49.8821 86.0115 49.8768 86.05 49.88L87.71 49.87ZM83.83 55.59C84.0876 55.598 84.3438 55.5493 84.5806 55.4473C84.8173 55.3454 85.0288 55.1927 85.2 55C85.5324 54.5707 85.7128 54.043 85.7128 53.5C85.7128 52.957 85.5324 52.4293 85.2 52C85.0294 51.8099 84.8192 51.6595 84.5842 51.5593C84.3493 51.4591 84.0953 51.4116 83.84 51.42C83.5794 51.4118 83.3201 51.4603 83.0801 51.5622C82.8401 51.6641 82.6251 51.8169 82.45 52.01C82.0817 52.4207 81.888 52.9588 81.91 53.51C81.8919 54.0558 82.0813 54.5882 82.44 55C82.6155 55.1926 82.8306 55.345 83.0705 55.4469C83.3104 55.5487 83.5695 55.5975 83.83 55.59V55.59Z" fill="white"></path><path d="M96.62 56.32C95.7742 57.0139 94.714 57.3931 93.62 57.3931C92.526 57.3931 91.4658 57.0139 90.62 56.32C89.8945 55.5624 89.4895 54.554 89.4895 53.505C89.4895 52.456 89.8945 51.4476 90.62 50.69C91.4666 49.9979 92.5265 49.6198 93.62 49.6198C94.7135 49.6198 95.7734 49.9979 96.62 50.69C97.3449 51.4459 97.7496 52.4527 97.7496 53.5C97.7496 54.5473 97.3449 55.5541 96.62 56.31V56.32ZM92.19 55C92.3817 55.1824 92.6077 55.3249 92.8549 55.4193C93.1021 55.5137 93.3655 55.5581 93.63 55.55C93.8928 55.5568 94.1544 55.5117 94.3998 55.4174C94.6451 55.323 94.8695 55.1812 95.06 55C95.4088 54.5896 95.6003 54.0686 95.6003 53.53C95.6003 52.9914 95.4088 52.4704 95.06 52.06C94.8695 51.8788 94.6451 51.737 94.3998 51.6426C94.1544 51.5483 93.8928 51.5032 93.63 51.51C93.3655 51.5019 93.1021 51.5463 92.8549 51.6407C92.6077 51.7351 92.3817 51.8776 92.19 52.06C91.8412 52.4704 91.6497 52.9914 91.6497 53.53C91.6497 54.0686 91.8412 54.5896 92.19 55V55Z" fill="white"></path><path d="M101.36 48.17C101.096 48.4014 100.756 48.5289 100.405 48.5289C100.054 48.5289 99.7144 48.4014 99.45 48.17C99.3302 48.0569 99.2347 47.9205 99.1694 47.7692C99.1042 47.6179 99.0705 47.4548 99.0705 47.29C99.0705 47.1252 99.1042 46.9621 99.1694 46.8108C99.2347 46.6595 99.3302 46.5231 99.45 46.41C99.7171 46.1844 100.055 46.0607 100.405 46.0607C100.755 46.0607 101.093 46.1844 101.36 46.41C101.48 46.5231 101.575 46.6595 101.641 46.8108C101.706 46.9621 101.74 47.1252 101.74 47.29C101.74 47.4548 101.706 47.6179 101.641 47.7692C101.575 47.9205 101.48 48.0569 101.36 48.17V48.17ZM101.57 57.39C100.976 57.4191 100.388 57.2503 99.9 56.91C99.6996 56.757 99.5388 56.5582 99.431 56.3303C99.3231 56.1024 99.2713 55.852 99.28 55.6V50.16C99.2752 50.1208 99.2793 50.0809 99.2922 50.0435C99.305 50.0061 99.3262 49.9721 99.3542 49.9442C99.3822 49.9162 99.4161 49.895 99.4535 49.8821C99.4909 49.8693 99.5308 49.8651 99.57 49.87H101.25C101.44 49.87 101.53 49.97 101.53 50.16V54.88C101.53 55.26 101.7 55.45 102.04 55.45C102.192 55.4555 102.343 55.4386 102.49 55.4C102.69 55.4 102.8 55.46 102.81 55.64L102.96 56.89C102.967 56.9264 102.967 56.964 102.958 57.0002C102.949 57.0363 102.933 57.0702 102.911 57.0996C102.888 57.129 102.859 57.1531 102.826 57.1705C102.793 57.1878 102.757 57.1978 102.72 57.2C102.349 57.3223 101.961 57.3863 101.57 57.39V57.39Z" fill="white"></path><path d="M109.14 49.63C109.665 49.6093 110.188 49.6942 110.68 49.8797C111.171 50.0652 111.62 50.3476 112 50.71C112.707 51.4689 113.1 52.4677 113.1 53.505C113.1 54.5423 112.707 55.5411 112 56.3C111.622 56.6656 111.173 56.9507 110.682 57.1381C110.19 57.3255 109.666 57.4111 109.14 57.39C108.391 57.4067 107.657 57.1784 107.05 56.74V60.35C107.05 60.54 106.95 60.63 106.76 60.63H105.08C105.042 60.6372 105.002 60.6349 104.965 60.6233C104.928 60.6118 104.894 60.5914 104.866 60.5638C104.839 60.5362 104.818 60.5023 104.807 60.4651C104.795 60.4278 104.793 60.3883 104.8 60.35V52.15C104.812 52.0698 104.805 51.9879 104.779 51.911C104.754 51.834 104.711 51.7641 104.653 51.7068C104.596 51.6495 104.526 51.6063 104.449 51.5809C104.372 51.5554 104.29 51.5482 104.21 51.56H103.88C103.66 51.56 103.55 51.48 103.55 51.32V50.14C103.545 50.067 103.565 49.9944 103.607 49.9343C103.649 49.8743 103.71 49.8304 103.78 49.81C104.126 49.6843 104.492 49.6232 104.86 49.63C105.227 49.5975 105.595 49.6753 105.918 49.8535C106.24 50.0317 106.502 50.302 106.67 50.63C106.992 50.3042 107.377 50.0474 107.802 49.8755C108.227 49.7036 108.682 49.62 109.14 49.63ZM107.58 55C107.758 55.1863 107.973 55.3346 108.21 55.436C108.447 55.5373 108.702 55.5895 108.96 55.5895C109.218 55.5895 109.473 55.5373 109.71 55.436C109.947 55.3346 110.162 55.1863 110.34 55C110.716 54.5811 110.913 54.0322 110.89 53.47C110.916 52.9073 110.718 52.3572 110.34 51.94C110.162 51.7537 109.947 51.6054 109.71 51.504C109.473 51.4027 109.218 51.3505 108.96 51.3505C108.702 51.3505 108.447 51.4027 108.21 51.504C107.973 51.6054 107.758 51.7537 107.58 51.94C107.216 52.3646 107.027 52.9113 107.05 53.47C107.03 54.0282 107.219 54.5739 107.58 55Z" fill="white"></path><path d="M117.82 57.39C116.922 57.4269 116.032 57.2122 115.25 56.77C114.936 56.581 114.669 56.3237 114.468 56.0173C114.267 55.7109 114.138 55.3632 114.09 55C114.09 54.8 114.16 54.7 114.38 54.7H115.85C115.92 54.7027 115.988 54.7247 116.046 54.7635C116.104 54.8023 116.151 54.8565 116.18 54.92C116.39 55.46 116.94 55.73 117.82 55.73C118.127 55.744 118.433 55.6822 118.71 55.55C118.806 55.5068 118.888 55.4383 118.948 55.352C119.008 55.2657 119.043 55.1648 119.05 55.06C119.05 54.8 118.89 54.62 118.57 54.5C118.19 54.3737 117.798 54.2898 117.4 54.25C116.928 54.1966 116.461 54.1131 116 54C115.552 53.8986 115.144 53.6652 114.83 53.33C114.645 53.1022 114.509 52.8387 114.43 52.556C114.351 52.2732 114.331 51.9773 114.371 51.6865C114.412 51.3958 114.511 51.1164 114.664 50.8659C114.817 50.6153 115.02 50.3988 115.26 50.23C115.981 49.7708 116.826 49.5472 117.68 49.59C118.506 49.5621 119.324 49.7665 120.04 50.18C120.329 50.3434 120.577 50.5692 120.767 50.8408C120.958 51.1124 121.085 51.423 121.14 51.75C121.14 51.95 121.05 52.05 120.87 52.05H119.39C119.328 52.0537 119.266 52.0385 119.212 52.0064C119.159 51.9742 119.116 51.9267 119.09 51.87C118.991 51.6331 118.805 51.4434 118.57 51.34C118.305 51.2013 118.009 51.1325 117.71 51.14C117.417 51.1241 117.124 51.1825 116.86 51.31C116.767 51.3459 116.687 51.409 116.63 51.491C116.572 51.5729 116.541 51.6701 116.54 51.77C116.546 51.9067 116.596 52.0378 116.683 52.144C116.769 52.2502 116.887 52.3259 117.02 52.36C117.404 52.5047 117.803 52.6054 118.21 52.66C118.678 52.7215 119.142 52.8083 119.6 52.92C120.048 53.0214 120.456 53.2548 120.77 53.59C120.938 53.7747 121.068 53.9908 121.152 54.226C121.236 54.4611 121.273 54.7106 121.26 54.96C121.269 55.3057 121.187 55.6477 121.024 55.9527C120.861 56.2576 120.622 56.5151 120.33 56.7C119.583 57.1796 118.707 57.4203 117.82 57.39V57.39Z" fill="white"></path><path d="M131.83 56.89C131.836 56.9255 131.834 56.9618 131.826 56.9967C131.817 57.0316 131.802 57.0645 131.78 57.0934C131.759 57.1223 131.732 57.1466 131.701 57.1649C131.67 57.1832 131.636 57.1951 131.6 57.2C131.235 57.3192 130.854 57.3832 130.47 57.39C130.09 57.4294 129.706 57.37 129.356 57.2175C129.005 57.0651 128.7 56.8249 128.47 56.52C127.764 57.1273 126.85 57.4389 125.92 57.39C125.488 57.4099 125.057 57.3392 124.654 57.1825C124.251 57.0258 123.885 56.7865 123.58 56.48C123.277 56.1589 123.042 55.7799 122.889 55.3658C122.736 54.9516 122.669 54.5109 122.69 54.07V50.16C122.69 49.97 122.78 49.87 122.97 49.87H124.65C124.84 49.87 124.93 49.97 124.93 50.16V53.77C124.912 54.2198 125.065 54.6596 125.36 55C125.507 55.1559 125.686 55.2786 125.884 55.3597C126.082 55.4407 126.296 55.4784 126.51 55.47C126.729 55.4796 126.948 55.4456 127.154 55.3701C127.36 55.2946 127.549 55.179 127.71 55.03C127.862 54.873 127.981 54.6863 128.058 54.4817C128.136 54.277 128.17 54.0586 128.16 53.84V50.16C128.16 49.97 128.25 49.87 128.44 49.87H130.14C130.33 49.87 130.42 49.97 130.42 50.16V54.87C130.42 55.26 130.59 55.45 130.92 55.45C131.075 55.456 131.23 55.4392 131.38 55.4C131.418 55.3894 131.458 55.3875 131.496 55.3944C131.535 55.4014 131.571 55.417 131.603 55.4401C131.635 55.4632 131.661 55.4931 131.68 55.5278C131.698 55.5624 131.708 55.6008 131.71 55.64L131.83 56.89Z" fill="white"></path><path d="M147.72 56.89C147.729 56.9258 147.73 56.9631 147.723 56.9993C147.715 57.0355 147.7 57.0696 147.678 57.0993C147.656 57.1289 147.628 57.1533 147.595 57.1707C147.563 57.1881 147.527 57.1981 147.49 57.2C147.118 57.3209 146.731 57.3849 146.34 57.39C145.745 57.4207 145.158 57.2517 144.67 56.91C144.459 56.7636 144.288 56.5675 144.171 56.339C144.054 56.1104 143.995 55.8566 144 55.6V53.25C144.021 52.8016 143.871 52.3619 143.58 52.02C143.44 51.8637 143.266 51.7405 143.073 51.6592C142.879 51.5779 142.67 51.5406 142.46 51.55C142.271 51.5429 142.083 51.5787 141.909 51.655C141.736 51.7312 141.582 51.8457 141.46 51.99C141.196 52.3251 141.061 52.7438 141.08 53.17V56.86C141.08 57.05 140.99 57.15 140.8 57.15H139.11C139.071 57.1549 139.031 57.1507 138.993 57.1379C138.956 57.125 138.922 57.1038 138.894 57.0758C138.866 57.0479 138.845 57.0139 138.832 56.9765C138.819 56.9391 138.815 56.8992 138.82 56.86V53.25C138.842 52.8065 138.703 52.3699 138.43 52.02C138.308 51.873 138.155 51.7547 137.982 51.6735C137.81 51.5922 137.621 51.5501 137.43 51.55C137.226 51.5418 137.023 51.5767 136.833 51.6525C136.643 51.7284 136.472 51.8434 136.33 51.99C136.044 52.3144 135.897 52.7381 135.92 53.17V56.86C135.925 56.8992 135.921 56.9391 135.908 56.9765C135.895 57.0139 135.874 57.0479 135.846 57.0758C135.818 57.1038 135.784 57.125 135.746 57.1379C135.709 57.1507 135.669 57.1549 135.63 57.15H134C133.81 57.15 133.72 57.05 133.72 56.86V52.15C133.732 52.0698 133.725 51.9879 133.699 51.911C133.674 51.834 133.631 51.7641 133.573 51.7068C133.516 51.6495 133.446 51.6063 133.369 51.5809C133.292 51.5554 133.21 51.5482 133.13 51.56H132.8C132.58 51.56 132.47 51.48 132.47 51.32V50.14C132.465 50.067 132.485 49.9944 132.527 49.9343C132.569 49.8743 132.63 49.8304 132.7 49.81C133.046 49.6843 133.412 49.6232 133.78 49.63C134.133 49.5999 134.488 49.6703 134.803 49.8331C135.118 49.9959 135.38 50.2444 135.56 50.55C135.897 50.2302 136.297 49.9835 136.734 49.8252C137.171 49.6669 137.636 49.6005 138.1 49.63C138.551 49.608 139 49.6925 139.412 49.8767C139.823 50.0609 140.186 50.3395 140.47 50.69C140.801 50.3303 141.208 50.0486 141.661 49.8653C142.114 49.682 142.602 49.6016 143.09 49.63C143.526 49.6096 143.962 49.6799 144.37 49.8365C144.778 49.9932 145.149 50.2327 145.46 50.54C145.764 50.8605 145.999 51.2394 146.152 51.6536C146.305 52.0679 146.373 52.509 146.35 52.95V54.88C146.35 55.26 146.52 55.45 146.84 55.45C146.995 55.4572 147.15 55.4404 147.3 55.4C147.507 55.4 147.617 55.48 147.63 55.64L147.72 56.89Z" fill="white"></path><path d="M30.46 48.57C31.1978 45.6047 32.9064 42.9714 35.3139 41.0895C37.7214 39.2076 40.6893 38.1853 43.745 38.1853C46.8007 38.1853 49.7686 39.2076 52.1761 41.0895C54.5836 42.9714 56.2922 45.6047 57.03 48.57H55.83C53.8057 48.5402 51.8229 49.1452 50.16 50.3C50.064 50.3695 49.9638 50.4329 49.86 50.49H49.72C49.6162 50.4329 49.516 50.3695 49.42 50.3C47.7424 49.1719 45.7666 48.5694 43.745 48.5694C41.7234 48.5694 39.7476 49.1719 38.07 50.3C37.974 50.3695 37.8738 50.4329 37.77 50.49H37.63C37.5262 50.4329 37.426 50.3695 37.33 50.3C35.6671 49.1452 33.6843 48.5402 31.66 48.57H30.46ZM53.67 54.84C54.286 54.3603 55.0495 54.1093 55.83 54.13H57.44V50.92H55.83C54.4552 50.9034 53.1119 51.3313 52 52.14C51.3743 52.6013 50.6173 52.8502 49.84 52.8502C49.0626 52.8502 48.3057 52.6013 47.68 52.14C46.5399 51.3464 45.1841 50.9209 43.795 50.9209C42.4059 50.9209 41.0501 51.3464 39.91 52.14C39.2843 52.6013 38.5273 52.8502 37.75 52.8502C36.9726 52.8502 36.2157 52.6013 35.59 52.14C34.4644 51.3209 33.1018 50.8925 31.71 50.92H30.05V54.13H31.66C32.4405 54.1093 33.204 54.3603 33.82 54.84C34.958 55.6341 36.3123 56.06 37.7 56.06C39.0877 56.06 40.442 55.6341 41.58 54.84C42.1968 54.3617 42.9597 54.111 43.74 54.13C44.5207 54.1076 45.2848 54.3588 45.9 54.84C47.0401 55.6336 48.3959 56.0591 49.785 56.0591C51.1741 56.0591 52.5299 55.6336 53.67 54.84V54.84ZM53.67 60.58C54.286 60.1003 55.0495 59.8493 55.83 59.87H57.44V56.66H55.83C54.4552 56.6434 53.1119 57.0713 52 57.88C51.3743 58.3413 50.6173 58.5902 49.84 58.5902C49.0626 58.5902 48.3057 58.3413 47.68 57.88C46.5399 57.0864 45.1841 56.6609 43.795 56.6609C42.4059 56.6609 41.0501 57.0864 39.91 57.88C39.2843 58.3413 38.5273 58.5902 37.75 58.5902C36.9726 58.5902 36.2157 58.3413 35.59 57.88C34.4644 57.0609 33.1018 56.6325 31.71 56.66H30.05V59.87H31.66C32.4405 59.8493 33.204 60.1003 33.82 60.58C34.958 61.3741 36.3123 61.8 37.7 61.8C39.0877 61.8 40.442 61.3741 41.58 60.58C42.1968 60.1017 42.9597 59.851 43.74 59.87C44.5207 59.8476 45.2848 60.0988 45.9 60.58C47.0401 61.3736 48.3959 61.7991 49.785 61.7991C51.1741 61.7991 52.5299 61.3736 53.67 60.58V60.58Z" fill="white"></path></svg>